<svg id="Capa_1" enable-background="new 0 0 512 512" height="512" viewBox="0 0 512 512" width="512" xmlns="http://www.w3.org/2000/svg"><g><g><path d="m255.999 0h-.002c-118.035 0-213.722 95.686-213.723 213.722 0 35.158 10.862 67.866 30.258 97.015 48.293 72.577 116.343 132.519 175.212 196.756.101.11.621.677 1.355 1.478 3.673 4.007 9.982 4.043 13.698.077.787-.841 1.351-1.44 1.455-1.555 58.868-64.237 126.919-124.179 175.212-196.756 19.396-29.149 30.258-61.857 30.258-97.015-.002-118.036-95.688-213.722-213.723-213.722z" fill="#87e0ec"/></g><g><path d="m469.726 213.72c0 35.163-10.871 67.868-30.267 97.015-48.285 72.578-116.34 132.521-175.205 196.759-.106.114-.674.717-1.466 1.561-3.716 3.959-10.017 3.92-13.687-.081-.736-.803-1.258-1.371-1.36-1.48-3.952-4.305-7.935-8.599-11.96-12.872 58.066-62.848 124.43-121.868 171.782-193.046 19.397-29.147 30.267-61.852 30.267-97.015-.01-91.684-57.745-169.883-138.838-200.234 97.431 19.895 170.724 106.092 170.734 209.393z" fill="#2dd2e3"/></g><g><circle cx="255.994" cy="202.181" fill="#efe2dd" r="143.75"/></g><g><path d="m399.744 202.182c0 79.39-64.357 143.746-143.746 143.746-23.577 0-45.838-5.676-65.478-15.752 12.328 3.445 25.325 5.285 38.744 5.285 79.39 0 143.746-64.367 143.746-143.757 0-55.812-31.803-104.19-78.289-128.004 60.583 16.915 105.023 72.511 105.023 138.482z" fill="#e1d3ce"/></g><g><path d="m206.467 184.906v23.795c0 2.839 2.302 5.141 5.141 5.141h10.391c2.839 0 5.141 2.302 5.141 5.141v79.34c0 2.839 2.302 5.141 5.141 5.141h49.037c2.839 0 5.141-2.302 5.141-5.141v-113.417c0-2.839-2.302-5.141-5.141-5.141h-69.71c-2.839 0-5.141 2.302-5.141 5.141z" fill="#ff5e95"/></g><g><path d="m286.465 184.908v113.414c0 2.838-2.303 5.141-5.141 5.141h-10.694v-123.696h10.694c2.838 0 5.141 2.303 5.141 5.141z" fill="#ff3980"/></g><g><g><g><circle cx="255.997" cy="127.629" fill="#ff5e95" r="28.686"/></g><g><path d="m284.685 127.625c0 15.85-12.848 28.688-28.688 28.688-8.782 0-16.648-3.949-21.896-10.166 3.002 1.075 6.238 1.65 9.602 1.65 15.839 0 28.677-12.838 28.677-28.688 0-7.057-2.544-13.519-6.77-18.511 11.113 3.939 19.075 14.563 19.075 27.027z" fill="#ff3980"/></g></g></g></g></svg>